<svg width="23" height="23" viewBox="0 0 23 23" fill="none" xmlns="http://www.w3.org/2000/svg">
<path d="M12.75 10.5H10.0875C9.3 10.5 8.6625 9.9 8.6625 9.15C8.6625 8.4 9.3 7.8 10.0875 7.8H13.95C14.4 7.8 14.775 7.425 14.775 6.975C14.775 6.525 14.4 6.15 13.95 6.15H12.15V5.25C12.15 4.8 11.775 4.425 11.325 4.425C10.875 4.425 10.5 4.8 10.5 5.25V6.15H10.0875C8.3625 6.15 6.975 7.5 6.975 9.1875C6.975 10.875 8.3625 12.225 10.0875 12.225H12.75C13.5375 12.225 14.175 12.825 14.175 13.575C14.175 14.325 13.5375 14.925 12.75 14.925H8.7C8.25 14.925 7.875 15.3 7.875 15.75C7.875 16.2 8.25 16.575 8.7 16.575H10.5V17.475C10.5 17.925 10.875 18.3 11.325 18.3C11.775 18.3 12.15 17.925 12.15 17.475V16.575H12.75C14.475 16.575 15.8625 15.225 15.8625 13.5375C15.9 11.85 14.475 10.5 12.75 10.5Z" fill="black"/>
<path d="M11.325 0C5.0625 0 0 5.0625 0 11.325C0 17.5875 5.0625 22.65 11.325 22.65C17.5875 22.65 22.65 17.5875 22.65 11.325C22.65 5.0625 17.5875 0 11.325 0ZM11.325 21C6 21 1.65 16.65 1.65 11.325C1.65 6 6 1.65 11.325 1.65C16.65 1.65 21 6 21 11.325C21 16.65 16.65 21 11.325 21Z" fill="black"/>
</svg>
